{
  "accessors": [
    {
      "bufferView": 2,
      "componentType": 5126,
      "count": 65532,
      "max": [
        45.4555778503418,
        123.94583129882813,
        101.98062133789063
      ],
      "min": [
        -10.534669876098633,
        -29.381179809570313,
        -55.821388244628906
      ],
      "type": "VEC3"
    },
    {
      "bufferView": 2,
      "byteOffset": 786384,
      "componentType": 5126,
      "count": 65532,
      "max": [
        0.9999883770942688,
        0.9972275495529175,
        0.9997940063476563
      ],
      "min": [
        -0.9999955296516418,
        -0.9999431371688843,
        -0.9997766613960266
      ],
      "type": "VEC3"
    },
    {
      "bufferView": 1,
      "componentType": 5126,
      "count": 65532,
      "max": [
        0.9980790019035339,
        0.9978749752044678
      ],
      "min": [
        0.00101200002245605,
        0.0011759999906644225
      ],
      "type": "VEC2"
    },
    {
      "bufferView": 0,
      "componentType": 5125,
      "count": 358545,
      "type": "SCALAR"
    },
    {
      "bufferView": 2,
      "byteOffset": 1572768,
      "componentType": 5126,
      "count": 33951,
      "max": [
        45.37960433959961,
        131.43057250976563,
        98.0408706665039
      ],
      "min": [
        -10.465988159179688,
        -4.661143779754639,
        -45.897544860839844
      ],
      "type": "VEC3"
    },
    {
      "bufferView": 2,
      "byteOffset": 1980180,
      "componentType": 5126,
      "count": 33951,
      "max": [
        0.9999036192893982,
        0.9993090033531189,
        0.9999346137046814
      ],
      "min": [
        -0.9999125003814697,
        -0.9999142289161682,
        -0.9996748566627502
      ],
      "type": "VEC3"
    },
    {
      "bufferView": 1,
      "byteOffset": 524256,
      "componentType": 5126,
      "count": 33951,
      "max": [
        0.9990000128746033,
        0.9983980059623718
      ],
      "min": [
        0.0010049999691545963,
        0.0010369999799877405
      ],
      "type": "VEC2"
    },
    {
      "bufferView": 0,
      "byteOffset": 1434180,
      "componentType": 5125,
      "count": 163854,
      "type": "SCALAR"
    }
  ],
  "asset": {
    "extras": {
      "author": "garyle802 (https://sketchfab.com/Gary.Lefebvre1)",
      "license": "CC-BY-4.0 (http://creativecommons.org/licenses/by/4.0/)",
      "source": "https://sketchfab.com/3d-models/malletts-bay-old-tour-boat-3b19439b50f44ae28f0148c1807b26a4",
      "title": "Malletts Bay Old Tour Boat"
    },
    "generator": "Sketchfab-16.74.0",
    "version": "2.0"
  },
  "bufferViews": [
    {
      "buffer": 0,
      "byteLength": 2089596,
      "name": "floatBufferViews",
      "target": 34963
    },
    {
      "buffer": 0,
      "byteLength": 795864,
      "byteOffset": 2089596,
      "byteStride": 8,
      "name": "floatBufferViews",
      "target": 34962
    },
    {
      "buffer": 0,
      "byteLength": 2387592,
      "byteOffset": 2885460,
      "byteStride": 12,
      "name": "floatBufferViews",
      "target": 34962
    }
  ],
  "buffers": [
    {
      "byteLength": 5273052,
      "uri": "scene.bin"
    }
  ],
  "extensionsUsed": [
    "KHR_materials_specular"
  ],
  "images": [
    {
      "uri": "textures/Malletts_Bay_old_tour_boat_baseColor.jpeg"
    },
    {
      "uri": "textures/Malletts_Bay_old_tour_boat_metallicRoughness.png"
    },
    {
      "uri": "textures/Malletts_Bay_old_tour_boat_specularf0.png"
    }
  ],
  "materials": [
    {
      "doubleSided": true,
      "emissiveFactor": [
        1.0,
        1.0,
        1.0
      ],
      "emissiveTexture": {
        "index": 0
      },
      "extensions": {
        "KHR_materials_specular": {
          "specularColorFactor": [
            1.0,
            1.0,
            1.0
          ],
          "specularFactor": 1.0,
          "specularTexture": {
            "index": 2
          }
        }
      },
      "name": "Malletts_Bay_old_tour_boat",
      "pbrMetallicRoughness": {
        "baseColorTexture": {
          "index": 0
        },
        "metallicRoughnessTexture": {
          "index": 1
        }
      }
    }
  ],
  "meshes": [
    {
      "name": "Object_0",
      "primitives": [
        {
          "attributes": {
            "NORMAL": 1,
            "POSITION": 0,
            "TEXCOORD_0": 2
          },
          "indices": 3,
          "material": 0,
          "mode": 4
        }
      ]
    },
    {
      "name": "Object_1",
      "primitives": [
        {
          "attributes": {
            "NORMAL": 5,
            "POSITION": 4,
            "TEXCOORD_0": 6
          },
          "indices": 7,
          "material": 0,
          "mode": 4
        }
      ]
    }
  ],
  "nodes": [
    {
      "children": [
        1
      ],
      "matrix": [
        0.8604987859725952,
        0.2534681260585786,
        -0.4419227540493011,
        0.0,
        -0.1186675876379013,
        -0.7438620328903197,
        -0.6577136516571046,
        0.0,
        -0.4954390227794647,
        0.618403732776642,
        -0.6100139617919921,
        0.0,
        0.0,
        0.0,
        0.0,
        1.0
      ],
      "name": "Sketchfab_model"
    },
    {
      "children": [
        2,
        3
      ],
      "name": "Malletts Bay old tour boat.obj.cleaner.materialmerger.gles"
    },
    {
      "mesh": 0,
      "name": "Object_2"
    },
    {
      "mesh": 1,
      "name": "Object_3"
    }
  ],
  "samplers": [
    {
      "magFilter": 9729,
      "minFilter": 9987,
      "wrapS": 10497,
      "wrapT": 10497
    }
  ],
  "scene": 0,
  "scenes": [
    {
      "name": "Sketchfab_Scene",
      "nodes": [
        0
      ]
    }
  ],
  "textures": [
    {
      "sampler": 0,
      "source": 0
    },
    {
      "sampler": 0,
      "source": 1
    },
    {
      "sampler": 0,
      "source": 2
    }
  ]
}
